<?xml version="1.0" encoding="UTF-8"?>
<svg width="22px" height="21px" viewBox="0 0 22 21" version="1.1" xmlns="http://www.w3.org/2000/svg" xmlns:xlink="http://www.w3.org/1999/xlink">
    <!-- Generator: Sketch 51.2 (57519) - http://www.bohemiancoding.com/sketch -->
    <title>豆瓣读书</title>
    <desc>Created with Sketch.</desc>
    <defs></defs>
    <g id="Page-1" stroke="none" stroke-width="1" fill="none" fill-rule="evenodd">
        <g id="首页" transform="translate(-612.000000, -692.000000)" fill="#666666" fill-rule="nonzero">
            <g id="Group-2" transform="translate(449.000000, 342.000000)">
                <g id="间距-&lt;h60-&gt;" transform="translate(0.000000, 185.000000)">
                    <g id="腾讯微博">
                        <path d="M180.268654,169.99941 C178.200847,169.981833 176.132792,169.995491 174.06482,169.995491 C171.952875,169.995491 169.840821,169.981723 167.729014,169.999382 C165.662059,170.016655 164.688119,171.009978 164.655807,173.105147 C164.641507,174.032026 164.633147,174.959925 164.659162,175.886335 C164.710889,177.728586 165.720441,178.792657 167.525486,178.804385 C171.837183,178.832474 176.149347,178.831067 180.461044,178.804798 C182.213536,178.794092 183.247838,177.773701 183.336223,176.02408 C183.387401,175.011249 183.378436,173.992954 183.346398,172.978716 C183.283588,170.989835 182.276978,170.016435 180.268654,169.99941 Z M181.132594,175.232655 C181.087439,176.225454 180.756751,176.586592 179.763561,176.614295 C178.400332,176.652346 177.035287,176.625526 175.67104,176.626271 C175.09893,176.626574 174.526792,176.626326 173.954682,176.626326 C172.150298,176.626022 170.345831,176.638191 168.541611,176.622104 C167.147884,176.609632 166.866916,176.308371 166.846869,174.88857 C166.840021,174.402987 166.821376,173.915252 166.856191,173.431959 C166.916389,172.595641 167.252989,172.207545 168.093278,172.201778 C172.009855,172.174819 175.926762,172.174516 179.843394,172.198881 C180.755239,172.204592 181.084084,172.586673 181.131686,173.511041 C181.161166,174.083542 181.158609,174.659796 181.132594,175.232655 Z M183.390811,183.809767 C182.334536,183.797212 181.277904,183.815092 180.221656,183.80022 C179.947454,183.796384 179.674269,183.720144 179.323011,183.664986 C179.544634,183.236245 179.700036,182.923284 179.866686,182.616505 C180.035151,182.306552 180.215249,182.003028 180.389434,181.696165 C180.652114,181.233485 180.691274,180.775495 180.335039,180.341843 C179.806241,179.698124 179.014874,179.788657 178.486297,180.61013 C177.961817,181.425146 177.487744,182.274902 177.029484,183.129874 C176.772112,183.610048 176.450802,183.833828 175.883972,183.817162 C174.60855,183.77958 173.330955,183.787637 172.054955,183.813657 C171.551045,183.82395 171.241038,183.639517 171.003933,183.198277 C170.565638,182.382598 170.099541,181.580937 169.617658,180.79023 C169.110778,179.958575 168.624661,179.748978 168.027278,180.051039 C167.354959,180.390986 167.233491,180.990335 167.688424,181.856067 C167.991556,182.4329 168.324498,182.993895 168.781631,183.806511 C167.669916,183.806511 166.838041,183.805573 166.006166,183.806814 C165.389974,183.807697 164.771857,183.78198 164.158029,183.821466 C163.433129,183.867988 163.031409,184.252856 163.001709,184.845417 C162.969369,185.49115 163.397077,185.913572 164.184347,185.984293 C164.490202,186.011721 164.800182,185.994889 165.108264,185.994889 C171.006573,185.995248 176.904937,185.99522 182.803246,185.995193 C182.979328,185.995193 183.155438,185.99729 183.331466,185.994117 C184.456683,185.973753 184.976268,185.641229 184.99923,184.928472 C185.022853,184.194524 184.503075,183.822984 183.390811,183.809767 Z M165.801236,167.197775 C168.530033,167.208123 171.258913,167.201059 173.987765,167.201307 C175.748315,167.201611 177.508837,167.202797 179.269386,167.201169 C180.413744,167.200148 181.559256,167.226141 182.701908,167.181054 C183.506806,167.149349 183.907893,166.712717 183.871703,166.052304 C183.838868,165.453093 183.441988,165.087954 182.725586,165.011246 C182.551318,164.992565 182.373778,165.002802 182.197778,165.002774 C176.740074,165.002526 171.28237,164.999601 165.824666,165.005065 C164.618159,165.006306 164.091837,165.378785 164.125607,166.160304 C164.156874,166.883573 164.629022,167.193333 165.801236,167.197775 Z" id="豆瓣读书"></path>
                    </g>
                </g>
            </g>
        </g>
    </g>
</svg>