<?xml version="1.0" encoding="UTF-8"?>
<svg width="24px" height="18px" viewBox="0 0 24 18" version="1.1" xmlns="http://www.w3.org/2000/svg" xmlns:xlink="http://www.w3.org/1999/xlink">
    <!-- Generator: Sketch 51.2 (57519) - http://www.bohemiancoding.com/sketch -->
    <title>Email</title>
    <desc>Created with Sketch.</desc>
    <defs></defs>
    <g id="Page-1" stroke="none" stroke-width="1" fill="none" fill-rule="evenodd">
        <g id="首页" transform="translate(-1386.000000, -693.000000)" fill="#666666" fill-rule="nonzero">
            <g id="Group-2" transform="translate(449.000000, 342.000000)">
                <g id="间距-&lt;h60-&gt;" transform="translate(0.000000, 185.000000)">
                    <g id="腾讯微博">
                        <path d="M945.180116,174.042496 L937.350424,167.644874 C937.211324,167.529866 937,167.628826 937,167.810698 L937,182.218722 C937,182.248143 937,182.274889 937.002675,182.304309 C937.013375,182.49153 937.240749,182.577117 937.369148,182.440713 L945.196166,174.358098 C945.28444,174.267162 945.276416,174.122734 945.180116,174.042496 Z M938.225145,166.379792 L948.863576,174.903715 C948.94115,174.96523 949.0535,174.96523 949.131074,174.903715 L959.769505,166.379792 C959.927329,166.254086 959.839055,166 959.635756,166 L938.358894,166 C938.15827,166 938.067321,166.254086 938.225145,166.379792 Z M951.565314,175.251412 C951.48774,175.168499 951.356665,175.16315 951.271066,175.238039 L949.136424,177.064785 C949.056175,177.131649 948.94115,177.134324 948.860901,177.067459 L946.664735,175.246062 C946.579135,175.173848 946.453411,175.181872 946.375836,175.26211 L938.193045,183.636256 C938.061971,183.77266 938.155595,184 938.345519,184 L959.437807,184 C959.625056,184 959.721355,183.775334 959.592956,183.63893 L951.565314,175.251412 Z M960.997325,167.845468 C960.997325,167.66627 960.788676,167.564636 960.649576,167.679643 L952.846634,174.018425 C952.750334,174.098663 952.739634,174.243091 952.827909,174.334027 L960.628177,182.443388 C960.759251,182.577117 960.986625,182.494205 960.997325,182.306984 C961,182.280238 961,182.250817 961,182.224071 L960.997325,167.845468 Z" id="Email"></path>
                    </g>
                </g>
            </g>
        </g>
    </g>
</svg>