<?xml version="1.0" encoding="UTF-8"?>
<svg width="26px" height="25px" viewBox="0 0 26 25" version="1.1" xmlns="http://www.w3.org/2000/svg" xmlns:xlink="http://www.w3.org/1999/xlink">
    <!-- Generator: Sketch 51.2 (57519) - http://www.bohemiancoding.com/sketch -->
    <title>github</title>
    <desc>Created with Sketch.</desc>
    <defs></defs>
    <g id="Page-1" stroke="none" stroke-width="1" fill="none" fill-rule="evenodd">
        <g id="首页" transform="translate(-772.000000, -689.000000)" fill="#666666" fill-rule="nonzero">
            <g id="Group-2" transform="translate(449.000000, 342.000000)">
                <g id="间距-&lt;h60-&gt;" transform="translate(0.000000, 185.000000)">
                    <g id="腾讯微博">
                        <path d="M336,162.000513 C328.82088,162.000513 323,167.738224 323,174.817058 C323,180.47992 326.72476,185.284074 331.88992,186.978421 C332.5394,187.096846 332.7786,186.700559 332.7786,186.361689 C332.7786,186.056143 332.76664,185.046199 332.76092,183.975761 C329.14432,184.750906 328.38096,182.463409 328.38096,182.463409 C327.78972,180.982329 326.93744,180.588092 326.93744,180.588092 C325.75808,179.792441 327.02636,179.808846 327.02636,179.808846 C328.33156,179.899074 329.019,181.129463 329.019,181.129463 C330.1786,183.088856 332.05996,182.522365 332.80252,182.194774 C332.919,181.366313 333.25596,180.800847 333.62776,180.480946 C330.7402,180.156943 327.70496,179.057796 327.70496,174.147009 C327.70496,172.747955 328.213,171.604206 329.04448,170.707048 C328.90928,170.384071 328.46416,169.080885 329.17032,167.315278 C329.17032,167.315278 330.26232,166.971282 332.74636,168.62923 C333.78324,168.345215 334.89552,168.202695 336.00052,168.197569 C337.105,168.202695 338.2178,168.344703 339.25676,168.62923 C341.7382,166.970769 342.82812,167.315278 342.82812,167.315278 C343.53584,169.080885 343.09072,170.384071 342.95604,170.707048 C343.7896,171.604719 344.294,172.747955 344.294,174.147009 C344.294,179.069588 341.25252,180.153355 338.35768,180.470692 C338.82412,180.868518 339.2396,181.648277 339.2396,182.843804 C339.2396,184.558658 339.22452,185.938743 339.22452,186.361177 C339.22452,186.702097 339.45852,187.101973 340.11736,186.976371 C345.27992,185.279973 349,180.477357 349,174.816545 C349,167.737711 343.17964,162 336,162 L336,162.000513 Z" id="github"></path>
                    </g>
                </g>
            </g>
        </g>
    </g>
</svg>