<?xml version="1.0" encoding="UTF-8"?>
<svg width="25px" height="26px" viewBox="0 0 25 26" version="1.1" xmlns="http://www.w3.org/2000/svg" xmlns:xlink="http://www.w3.org/1999/xlink">
    <!-- Generator: Sketch 51.2 (57519) - http://www.bohemiancoding.com/sketch -->
    <title>Combined Shape</title>
    <desc>Created with Sketch.</desc>
    <defs></defs>
    <g id="Page-1" stroke="none" stroke-width="1" fill="none" fill-rule="evenodd">
        <g id="首页" transform="translate(-455.000000, -688.000000)" fill="#666666" fill-rule="nonzero">
            <g id="Group-2" transform="translate(449.000000, 342.000000)">
                <g id="间距-&lt;h60-&gt;" transform="translate(0.000000, 185.000000)">
                    <g id="腾讯微博">
                        <path d="M18.4737945,161 C18.4825334,161.000047 18.4912686,161.000102 18.5,161.000163 C18.5087314,161.000102 18.5174666,161.000047 18.5262055,161 C21.7659483,161.028611 24.4913151,162.047161 26.7023061,164.056018 C28.9252096,166.075698 30.3577742,168.850703 31,172.381032 L31,181.654465 C30.6563298,183.133626 30.0448692,184.310368 29.1656184,185.184692 C28.2863677,186.059017 27.2905605,186.480536 26.1781971,186.449251 C26.1302868,186.800518 25.9730541,186.976151 25.706499,186.976151 C25.503975,186.976151 24.3733983,187.029811 24.1865828,186.976151 C24.0620392,186.940378 23.9572174,186.764745 23.8721174,186.449251 L23.8721174,174.96284 C23.8546471,174.681827 23.9944095,174.54132 24.2914046,174.54132 C24.7368973,174.54132 25.3396226,174.54132 25.7589099,174.54132 C26.0384347,174.54132 26.1781971,174.681827 26.1781971,174.96284 C26.8165897,175.062187 27.358169,175.220257 27.802935,175.437049 C28.247701,175.653842 28.8591615,176.057798 29.6373166,176.648919 L29.6373166,173.487521 L29.1132075,173.487521 C28.9981913,172.087093 28.8409585,171.068421 28.6415094,170.431503 C28.4420603,169.794586 28.0053028,168.91642 27.3312369,167.797005 L25.9161426,168.745424 C24.3418844,167.176591 23.101493,166.157918 22.1949686,165.689407 C21.2934801,165.223498 20.0618239,164.960379 18.5,164.900049 C16.9381761,164.960379 15.7065199,165.223498 14.8050314,165.689407 C13.898507,166.157918 12.6581156,167.176591 11.0838574,168.745424 L9.6687631,167.797005 C8.99469719,168.91642 8.55793968,169.794586 8.35849057,170.431503 C8.15904145,171.068421 8.00180875,172.087093 7.88679245,173.487521 L7.36268344,173.487521 L7.36268344,176.648919 C8.14083848,176.057798 8.752299,175.653842 9.19706499,175.437049 C9.64183098,175.220257 10.1834103,175.062187 10.8218029,174.96284 C10.8218029,174.681827 10.9615653,174.54132 11.2410901,174.54132 C11.6603774,174.54132 12.2631027,174.54132 12.7085954,174.54132 C13.0055905,174.54132 13.1453529,174.681827 13.1278826,174.96284 L13.1278826,186.449251 C13.0427826,186.764745 12.9379608,186.940378 12.8134172,186.976151 C12.6266017,187.029811 11.496025,186.976151 11.293501,186.976151 C11.0269459,186.976151 10.8697132,186.800518 10.8218029,186.449251 C9.70943947,186.480536 8.71363234,186.059017 7.83438155,185.184692 C6.95513076,184.310368 6.34367025,183.133626 6,181.654465 L6,172.381032 C6.64222577,168.850703 8.07479041,166.075698 10.2976939,164.056018 C12.5086849,162.047161 15.2340517,161.028611 18.4737945,161.00037 Z" id="Combined-Shape"></path>
                    </g>
                </g>
            </g>
        </g>
    </g>
</svg>