<?xml version="1.0" encoding="UTF-8"?>
<svg width="24px" height="31px" viewBox="0 0 24 31" version="1.1" xmlns="http://www.w3.org/2000/svg" xmlns:xlink="http://www.w3.org/1999/xlink">
    <!-- Generator: Sketch 51.2 (57519) - http://www.bohemiancoding.com/sketch -->
    <title>专利</title>
    <desc>Created with Sketch.</desc>
    <defs></defs>
    <g id="Page-1" stroke="none" stroke-width="1" fill="none" fill-rule="evenodd">
        <g id="首页" transform="translate(-1253.000000, -687.000000)" fill="#666666" fill-rule="nonzero">
            <g id="Group-2" transform="translate(449.000000, 342.000000)">
                <g id="间距-&lt;h60-&gt;" transform="translate(0.000000, 185.000000)">
                    <g id="腾讯微博">
                        <path d="M816,182.285714 C821.680643,182.285714 826.285714,177.680643 826.285714,172 C826.285714,166.319357 821.680643,161.714286 816,161.714286 C810.319357,161.714286 805.714286,166.319357 805.714286,172 C805.714286,177.680643 810.319357,182.285714 816,182.285714 Z M816,184 C809.372583,184 804,178.627417 804,172 C804,165.372583 809.372583,160 816,160 C822.627417,160 828,165.372583 828,172 C828,178.627417 822.627417,184 816,184 Z M816,183.485075 L822.964286,180.678571 L826.714286,186.892857 L822.428571,186.892857 L819.964286,190.857143 L816,183.945055 L812.035714,190.857143 L809.571429,186.892857 L805.285714,186.892857 L809.035714,180.678571 L816,183.485075 Z M817.928571,167.607143 L820.928571,170.607143 L814.017857,177.571429 L810.107143,178.321429 L810.964286,174.464286 L817.928571,167.607143 Z M811.607143,175.214286 L811.071429,176.5 L811.928571,177.357143 L813.214286,176.821429 L811.607143,175.214286 Z M818.571429,166.964286 L819.026542,166.509172 C819.03531,166.500404 819.044158,166.491715 819.053084,166.483108 C819.866586,165.69866 821.16198,165.722213 821.946429,166.535714 C822.755975,167.375244 822.762867,168.702763 821.962082,169.550653 L821.571429,169.964286 L818.571429,166.964286 Z" id="专利"></path>
                    </g>
                </g>
            </g>
        </g>
    </g>
</svg>