<?xml version="1.0" encoding="UTF-8"?>
<svg width="70px" height="80px" viewBox="0 0 70 80" version="1.1" xmlns="http://www.w3.org/2000/svg" xmlns:xlink="http://www.w3.org/1999/xlink">
    <!-- Generator: Sketch 51.2 (57519) - http://www.bohemiancoding.com/sketch -->
    <title>问卷</title>
    <desc>Created with Sketch.</desc>
    <defs></defs>
    <g id="Page-1" stroke="none" stroke-width="1" fill="none" fill-rule="evenodd">
        <g id="首页" transform="translate(-925.000000, -342.000000)" fill="#666666" fill-rule="nonzero">
            <g id="Group-2" transform="translate(449.000000, 342.000000)">
                <path d="M493,68 L529,68 C530.105,68 531,67.105 531,66 C531,64.895 530.105,64 529,64 L493,64 C491.895,64 491,64.895 491,66 C491,67.105 491.895,68 493,68 Z M529,34 L493,34 C491.895,34 491,34.895 491,36 C491,37.105 491.895,38 493,38 L529,38 C530.105,38 531,37.105 531,36 C531,34.895 530.105,34 529,34 Z M529,44 L493,44 C491.895,44 491,44.895 491,46 C491,47.105 491.895,48 493,48 L529,48 C530.105,48 531,47.105 531,46 C531,44.895 530.105,44 529,44 Z M529,54 L493,54 C491.895,54 491,54.895 491,56 C491,57.105 491.895,58 493,58 L529,58 C530.105,58 531,57.105 531,56 C531,54.895 530.105,54 529,54 Z M493,16 C489.7,16 487,18.7 487,22 C487,25.3 489.7,28 493,28 L529,28 C532.3,28 535,25.3 535,22 C535,18.7 532.3,16 529,16 L518.986,16 C520.245,14.327 521,12.254 521,10 C521,4.477 516.523,0 511,0 C505.477,0 501,4.477 501,10 C501,12.254 501.755,14.327 503.014,16 L493,16 Z M511,4 C514.308,4 517,6.692 517,10 C517,13.308 514.308,16 511,16 C507.692,16 505,13.308 505,10 C505,6.692 507.692,4 511,4 Z M529,20 C530.084,20 531,20.916 531,22 C531,23.084 530.084,24 529,24 L493,24 C491.916,24 491,23.084 491,22 C491,20.916 491.916,20 493,20 L529,20 Z M538,6 L525.864,6 C524.633,6 523.73,7.096 523.89,8.317 C523.892,8.33 523.894,8.344 523.895,8.357 C524.014,9.286 524.768,10 525.703,10 L538,10 C540.209,10 542,11.791 542,14 L542,72 C542,74.209 540.209,76 538,76 L484,76 C481.791,76 480,74.209 480,72 L480,14 C480,11.791 481.791,10 484,10 L496.297,10 C497.233,10 497.986,9.286 498.105,8.358 C498.107,8.345 498.108,8.331 498.11,8.318 C498.271,7.096 497.368,6 496.136,6 L484,6 C479.6,6 476,9.6 476,14 L476,72 C476,76.4 479.6,80 484,80 L538,80 C542.4,80 546,76.4 546,72 L546,14 C546,9.6 542.4,6 538,6 Z M508,10 C508,11.6568542 509.343146,13 511,13 C512.656854,13 514,11.6568542 514,10 C514,8.34314575 512.656854,7 511,7 C509.343146,7 508,8.34314575 508,10 Z" id="问卷"></path>
            </g>
        </g>
    </g>
</svg>