<?xml version="1.0" encoding="UTF-8"?>
<svg width="86px" height="92px" viewBox="0 0 86 92" version="1.1" xmlns="http://www.w3.org/2000/svg" xmlns:xlink="http://www.w3.org/1999/xlink">
    <!-- Generator: Sketch 51.2 (57519) - http://www.bohemiancoding.com/sketch -->
    <title>qq音乐</title>
    <desc>Created with Sketch.</desc>
    <defs></defs>
    <g id="Page-1" stroke="none" stroke-width="1" fill="none" fill-rule="evenodd">
        <g id="首页" transform="translate(-299.000000, -659.000000)" fill="#666666" fill-rule="nonzero">
            <path d="M343.38867,665.021999 C342.048784,665.169185 341.318306,665.278829 340.328832,665.476522 C338.749481,665.79207 337.352464,666.229881 336.0663,666.848943 C333.561539,668.054543 330.151816,671.038051 325.762968,675.824142 C325.450047,676.165386 325.412294,676.676815 325.671717,677.060309 L347.539923,709.387224 C339.588243,709.100614 333.187872,710.869078 328.375305,714.719131 C323.067481,718.96539 321.126399,725.494486 322.512559,734.157991 C322.532726,734.28403 322.576836,734.405043 322.642507,734.514496 C328.875969,744.9036 337.519468,748.431558 348.307003,744.951709 C355.521424,742.624476 360.122731,738.323254 362.303477,732.871391 C363.918394,728.834098 363.999306,724.262544 362.894427,722.052786 C361.898876,720.061684 354.628436,706.971782 341.024807,682.676297 C349.786965,680.617511 355.176989,678.313078 357.287505,675.616308 C358.498559,674.068851 359.158206,671.740607 359.290738,668.617747 C374.429043,675.273776 385,690.402398 385,708 C385,731.748244 365.748244,751 342,751 C318.251756,751 299,731.748244 299,708 C299,684.251756 318.251756,665 342,665 C342.464648,665 342.927575,665.00737 343.38867,665.021999 Z M357.5,659 C358.853995,667.08471 358.520662,672.418043 356.5,675 C354.479338,677.581957 348.812672,679.91529 339.5,682 C353.5,707 361,720.5 362,722.5 C363.5,725.5 363.5,739 348,744 C337.666667,747.333333 329.5,744 323.5,734 C322.166667,725.666667 324,719.5 329,715.5 C334,711.5 340.833333,709.833333 349.5,710.5 L326.5,676.5 C330.808207,671.801849 334.14154,668.885182 336.5,667.75 C341.677198,665.258092 347.897504,666.409228 351,664.5 C355.333333,661.833333 357.5,660 357.5,659 Z" id="qq音乐"></path>
        </g>
    </g>
</svg>