<?xml version="1.0" encoding="UTF-8"?>
<svg width="27px" height="22px" viewBox="0 0 27 22" version="1.1" xmlns="http://www.w3.org/2000/svg" xmlns:xlink="http://www.w3.org/1999/xlink">
    <!-- Generator: Sketch 51.2 (57519) - http://www.bohemiancoding.com/sketch -->
    <title>Wechat</title>
    <desc>Created with Sketch.</desc>
    <defs></defs>
    <g id="Page-1" stroke="none" stroke-width="1" fill="none" fill-rule="evenodd">
        <g id="首页" transform="translate(-1092.000000, -691.000000)" fill="#008FFF" fill-rule="nonzero">
            <g id="Group-2" transform="translate(449.000000, 342.000000)">
                <g id="间距-&lt;h60-&gt;" transform="translate(0.000000, 185.000000)">
                    <g id="腾讯微博">
                        <path d="M670,178.167706 C670,174.37528 666.200241,171.28465 661.93509,171.28465 C657.416723,171.28465 653.859111,174.37528 653.859111,178.167706 C653.859111,181.96623 657.416723,185.050638 661.93509,185.050638 C662.880058,185.050638 663.834492,184.812713 664.7843,184.574572 L667.38862,186 L666.673588,183.628721 C668.58039,182.201507 670,180.306326 670,178.167706 Z M659.316155,176.981312 C658.843086,176.981312 658.36721,176.511282 658.36721,176.031303 C658.36721,175.559087 658.843116,175.083451 659.316155,175.083451 C660.034887,175.083451 660.504318,175.559087 660.504318,176.031303 C660.504318,176.511282 660.034887,176.981312 659.316155,176.981312 Z M664.539132,176.981312 C664.069639,176.981312 663.596261,176.511282 663.596261,176.031303 C663.596261,175.559087 664.06967,175.083451 664.539132,175.083451 C665.250833,175.083451 665.727418,175.559087 665.727418,176.031303 C665.727418,176.511282 665.250833,176.981312 664.539132,176.981312 Z M661.161626,170.603551 C661.470161,170.603551 661.774594,170.625172 662.077085,170.658959 C661.2537,166.838444 657.163907,164 652.495867,164 C647.275357,164 643,167.553546 643,172.065477 C643,174.669938 644.42368,176.809605 646.798711,178.468462 L645.850351,181.322768 L649.169733,179.659599 C650.35808,179.893767 651.310818,180.135204 652.495867,180.135204 C652.793887,180.135204 653.08944,180.12079 653.382557,180.097875 C653.196437,179.463438 653.089655,178.798601 653.089655,178.110419 C653.089655,173.965863 656.6514,170.603551 661.161626,170.603551 Z M656.056809,168.032846 C656.771193,168.032846 657.24488,168.501429 657.24488,169.215883 C657.24488,169.926734 656.771193,170.402369 656.056809,170.402369 C655.345262,170.402369 654.630046,169.926734 654.630046,169.215883 C654.630046,168.501429 655.345262,168.032846 656.056809,168.032846 Z M649.410492,170.402369 C648.700178,170.402369 647.980891,169.926734 647.980891,169.215883 C647.980891,168.501429 648.700178,168.032846 649.410492,168.032846 C650.122841,168.032846 650.59517,168.501429 650.59517,169.215883 C650.59517,169.926734 650.12281,170.402369 649.410492,170.402369 Z" id="Wechat"></path>
                    </g>
                </g>
            </g>
        </g>
    </g>
</svg>