<?xml version="1.0" encoding="UTF-8"?>
<svg width="28px" height="26px" viewBox="0 0 28 26" version="1.1" xmlns="http://www.w3.org/2000/svg" xmlns:xlink="http://www.w3.org/1999/xlink">
    <!-- Generator: Sketch 51.2 (57519) - http://www.bohemiancoding.com/sketch -->
    <title>腾讯微博</title>
    <desc>Created with Sketch.</desc>
    <defs></defs>
    <g id="Page-1" stroke="none" stroke-width="1" fill="none" fill-rule="evenodd">
        <g id="首页" transform="translate(-449.000000, -689.000000)" fill="#666666" fill-rule="nonzero">
            <g id="Group-2" transform="translate(449.000000, 342.000000)">
                <g id="间距-&lt;h60-&gt;" transform="translate(0.000000, 345.000000)">
                    <g id="腾讯微博" transform="translate(0.000000, 2.000000)">
                        <path d="M21.3903364,5.69641158 C21.3903364,5.69641158 22.1825779,7.91983338 24.0640938,9.58745471 C25.9456405,11.2550132 27.6291345,11.6593231 27.7282377,11.6087844 C27.7777586,11.6087844 28.3719167,11.15403 27.6291652,10.9013363 C26.8864446,10.6487054 25.3019308,9.73907092 24.4107398,8.93060815 C22.6282041,7.31352557 22.1825779,5.44390634 22.2320987,5.44390634 C22.4796415,5.29229013 22.8262568,5.03965926 22.8262568,4.38268706 C22.8262568,3.72571487 22.4301514,2.86668196 21.3902748,2.86668196 C20.350429,2.86668196 20.003906,3.72568346 20.003906,4.38268706 C20.003906,5.09013517 20.7466267,5.69650581 21.3902748,5.69650581 L21.3903364,5.69641158 Z M25.648546,5.29222731 C25.8960888,4.07948604 25.7476186,3.27089764 25.1533374,2.10863229 C24.4601376,0.794813547 21.934912,-0.923283694 19.2611238,0.592627183 C16.5873664,2.15910821 16.7853575,5.69644299 18.2708911,7.2628926 C19.7068731,8.82937363 21.7864417,8.67775741 21.7864417,8.67775741 C21.9350043,8.67775741 22.0339845,8.57664852 22.0339845,8.37455639 L22.0339845,8.22294017 C22.0339845,8.07132396 21.8854219,7.91973915 21.7368901,7.91973915 C21.7368901,7.91973915 20.9941694,7.91973915 20.2019587,7.61653813 C19.8553126,7.46492192 18.419423,6.75753663 18.0728385,5.03937657 C17.7261924,3.32124791 18.6669965,1.85578155 19.7563632,1.24947373 C21.2912946,0.390472229 22.9252678,0.542025624 24.3116981,2.1590768 C25.1039396,3.11918719 25.1039396,4.83728443 24.8069068,5.59527128 C24.4602607,6.40379687 24.2127487,6.55538167 24.2127487,6.55538167 C24.1136762,6.65649056 24.1136762,6.85858269 24.2127487,6.95962876 L24.4107706,7.11124498 C24.5098431,7.21235386 24.707865,7.21235386 24.806876,7.06070624 C24.7573551,7.16181512 25.401034,6.50487434 25.6485768,5.29207026 L25.648546,5.29222731 Z M5.39709726,10.8001646 C5.44661813,10.8507033 2.72333984,13.4278649 1.48544131,17.8241383 C0.247573551,22.1699045 0.742720654,24.5955126 0.891283251,25.3534995 C1.03984585,26.1114863 1.98061919,26.3136099 2.12915101,25.3534995 C2.22822352,24.3933891 1.78250495,21.4624564 2.77282993,18.2284168 C3.91168673,14.5395915 6.189308,11.8613524 6.28838051,11.9624613 C6.73397597,12.3162325 7.17966376,12.4172157 7.7738526,12.4172157 C9.20983459,12.4172157 10.2496189,11.2549504 10.2496189,9.84005417 C10.2496189,8.37455639 9.16028295,7.31339993 7.7738526,7.31339993 C6.3378706,7.31339993 5.24859622,8.37461921 5.24859622,9.84005417 C5.19907535,10.1938253 5.24859622,10.4969635 5.39715882,10.8001646 L5.39709726,10.8001646 Z M5.44667968,16.6619672 C5.05057431,17.5209687 6.63499579,17.7231865 7.62532078,17.7231865 C12.8738554,17.7231865 15.0030372,13.2257727 15.1515383,10.4465504 C15.3495602,7.06086329 12.9233763,2.31081865 7.72430095,2.31081865 C2.5252256,2.31081865 0,6.50503139 0,10.4465504 C0,12.9226345 1.08933594,14.2364533 1.88154668,13.7816989 C2.62426733,13.3774518 1.43595122,11.9120168 1.43595122,10.4465504 C1.43595122,7.97046635 2.87193322,3.72577769 7.62525922,3.72577769 C12.2796358,3.72577769 13.913609,7.86945169 13.7650156,10.4465504 C13.616453,13.023712 11.1902383,16.3083217 7.62525922,16.3083217 C7.42723731,16.3083217 5.79323341,15.8029343 5.44661813,16.6620929 L5.44667968,16.6619672 Z"></path>
                    </g>
                </g>
            </g>
        </g>
    </g>
</svg>